<!-- Generated by IcoMoon.io -->
<svg version="1.1" xmlns="http://www.w3.org/2000/svg" width="32" height="32" viewBox="0 0 32 32">
<title>Group-1416</title>
<path fill="#1e252b" d="M4.414 0h23.172c2.438 0 4.414 1.976 4.414 4.414v23.172c0 2.438-1.976 4.414-4.414 4.414h-23.172c-2.438 0-4.414-1.976-4.414-4.414v-23.172c0-2.438 1.976-4.414 4.414-4.414z"></path>
<path fill="#fff" opacity="0.78" d="M15.999 12.174c-1.015 0-1.988 0.403-2.706 1.121s-1.121 1.691-1.121 2.706c0 1.015 0.403 1.988 1.121 2.706s1.691 1.121 2.706 1.121 1.988-0.403 2.706-1.121c0.718-0.718 1.121-1.691 1.121-2.706s-0.403-1.988-1.121-2.706c-0.718-0.718-1.691-1.121-2.706-1.121zM15.999 18.486c-0.659 0-1.292-0.262-1.758-0.728s-0.728-1.099-0.728-1.758c0-0.659 0.262-1.292 0.728-1.758s1.099-0.728 1.758-0.728 1.292 0.262 1.758 0.728c0.466 0.466 0.728 1.099 0.728 1.758s-0.262 1.292-0.728 1.758c-0.466 0.466-1.099 0.728-1.758 0.728z"></path>
<path fill="#fff" opacity="0.78" d="M19.977 12.926c0.493 0 0.892-0.399 0.892-0.892s-0.399-0.892-0.892-0.892-0.892 0.399-0.892 0.892c0 0.493 0.399 0.892 0.892 0.892z"></path>
<path fill="#fff" opacity="0.78" d="M23.062 11.126c-0.192-0.495-0.484-0.944-0.86-1.319s-0.825-0.668-1.319-0.859c-0.579-0.217-1.191-0.335-1.809-0.348-0.797-0.035-1.049-0.045-3.070-0.045s-2.28 0-3.070 0.045c-0.618 0.012-1.229 0.13-1.807 0.348-0.495 0.191-0.944 0.484-1.32 0.859s-0.668 0.825-0.859 1.319c-0.217 0.579-0.335 1.191-0.347 1.809-0.036 0.796-0.046 1.049-0.046 3.070s0 2.278 0.046 3.070c0.012 0.619 0.129 1.23 0.347 1.81 0.192 0.495 0.485 0.944 0.86 1.319s0.825 0.668 1.32 0.859c0.577 0.226 1.189 0.352 1.808 0.372 0.797 0.035 1.049 0.046 3.070 0.046s2.28 0 3.070-0.046c0.618-0.013 1.23-0.13 1.809-0.347 0.495-0.192 0.944-0.485 1.319-0.86s0.668-0.824 0.86-1.319c0.218-0.579 0.334-1.19 0.347-1.809 0.036-0.796 0.046-1.049 0.046-3.070s0-2.278-0.046-3.070c-0.010-0.627-0.128-1.248-0.348-1.835zM22.054 19.015c-0.005 0.477-0.092 0.949-0.257 1.397-0.124 0.322-0.315 0.614-0.559 0.858s-0.536 0.434-0.858 0.558c-0.443 0.164-0.91 0.251-1.382 0.257-0.786 0.036-1.008 0.046-3.024 0.046-2.018 0-2.224 0-3.025-0.046-0.472-0.006-0.939-0.093-1.381-0.257-0.323-0.123-0.617-0.313-0.862-0.557s-0.436-0.537-0.561-0.859c-0.163-0.443-0.25-0.91-0.257-1.381-0.036-0.786-0.044-1.008-0.044-3.024s0-2.223 0.044-3.025c0.005-0.477 0.092-0.949 0.257-1.396 0.252-0.653 0.77-1.167 1.423-1.417 0.442-0.164 0.91-0.251 1.381-0.257 0.787-0.036 1.008-0.046 3.025-0.046s2.224 0 3.024 0.046c0.472 0.006 0.94 0.093 1.382 0.257 0.322 0.124 0.614 0.315 0.858 0.559s0.434 0.536 0.559 0.858c0.163 0.443 0.25 0.91 0.257 1.381 0.036 0.787 0.045 1.008 0.045 3.025s0 2.233-0.036 3.024h-0.009v-0.001z"></path>
</svg>
