<!-- Generated by IcoMoon.io -->
<svg version="1.1" xmlns="http://www.w3.org/2000/svg" width="32" height="32" viewBox="0 0 32 32">
<title>Group-159</title>
<path fill="#ff6e30" d="M6.737 0h18.526c3.721 0 6.737 3.016 6.737 6.737v18.526c0 3.721-3.016 6.737-6.737 6.737h-18.526c-3.721 0-6.737-3.016-6.737-6.737v-18.526c0-3.721 3.016-6.737 6.737-6.737z"></path>
<path fill="#fff" d="M16.812 10.472c-0.28 0-0.552 0.035-0.812 0.1 0.167-1.51 0.77-2.889 1.681-4.008 3.622 0.429 6.431 3.511 6.431 7.249v5.328c-0.145 0.008-0.292 0.012-0.44 0.012-2.897 0-5.423-1.596-6.744-3.959h3.224v-1.381c0-1.845-1.496-3.341-3.341-3.341z"></path>
<path fill="#fff" d="M7.795 14.274c0-4.485 3.636-8.12 8.12-8.12 2.242 0 4.273 0.909 5.742 2.378-1.355-1.355-3.186-2.233-5.22-2.362-1.369 1.515-2.202 3.522-2.202 5.724 0 0.164 0.005 0.327 0.014 0.489-0.524 0.462-0.854 1.138-0.854 1.891v0.56l1.36 0c1.198 3.268 4.337 5.6 8.021 5.6 0.428 0 0.849-0.032 1.26-0.092v3.452h-5.6v-3.36h-5.040v3.36h-5.6v-9.521z"></path>
</svg>
