<!-- Generated by IcoMoon.io -->
<svg version="1.1" xmlns="http://www.w3.org/2000/svg" width="38" height="32" viewBox="0 0 38 32">
<title>Group</title>
<path fill="#fff" opacity="0.38" d="M22.545 17.818h-1.818v-1.818c0-0.482-0.192-0.945-0.532-1.286s-0.803-0.533-1.286-0.533c-0.482 0-0.945 0.192-1.286 0.533s-0.532 0.803-0.532 1.286v1.818h-1.818c-0.482 0-0.945 0.192-1.286 0.532s-0.533 0.803-0.533 1.286c0 0.482 0.192 0.945 0.533 1.286s0.803 0.532 1.286 0.532h1.818v1.818c0 0.482 0.192 0.945 0.532 1.286s0.803 0.532 1.286 0.532c0.482 0 0.945-0.192 1.286-0.532s0.532-0.803 0.532-1.286v-1.818h1.818c0.482 0 0.945-0.192 1.286-0.532s0.532-0.803 0.532-1.286c0-0.482-0.192-0.945-0.532-1.286s-0.803-0.532-1.286-0.532z"></path>
<path fill="#fff" opacity="0.38" d="M32.545 7h-12.727l-4.782-5.782c-0.169-0.209-0.383-0.377-0.625-0.493s-0.507-0.178-0.775-0.179h-8.364c-1.188-0.015-2.333 0.442-3.185 1.27s-1.341 1.96-1.36 3.148v22.073c0.019 1.188 0.508 2.32 1.36 3.148s1.997 1.285 3.185 1.27h27.273c1.188 0.015 2.333-0.442 3.185-1.27s1.341-1.96 1.36-3.148v-15.618c-0.019-1.188-0.508-2.32-1.36-3.148s-1.997-1.285-3.185-1.27zM33.455 27c-0.007 0.112-0.036 0.221-0.086 0.321s-0.119 0.189-0.204 0.262c-0.085 0.073-0.183 0.128-0.29 0.162s-0.219 0.047-0.33 0.037h-27.273c-0.111 0.010-0.224-0.003-0.33-0.037s-0.205-0.089-0.29-0.162-0.154-0.162-0.204-0.262c-0.050-0.1-0.079-0.209-0.086-0.321v-22.036c0.007-0.112 0.036-0.221 0.086-0.321s0.119-0.189 0.204-0.262c0.085-0.073 0.183-0.128 0.29-0.162s0.219-0.047 0.33-0.037h7.509l4.727 5.782c0.169 0.209 0.383 0.377 0.625 0.493s0.507 0.178 0.775 0.179h13.636c0.111-0.010 0.224 0.003 0.33 0.037s0.205 0.089 0.29 0.162 0.154 0.162 0.204 0.262c0.050 0.1 0.079 0.209 0.086 0.321v15.582z"></path>
</svg>
