<!-- Generated by IcoMoon.io -->
<svg version="1.1" xmlns="http://www.w3.org/2000/svg" width="32" height="32" viewBox="0 0 32 32">
<title>Group-1417</title>
<path fill="#1e252b" d="M4.414 0h23.172c2.438 0 4.414 1.976 4.414 4.414v23.172c0 2.438-1.976 4.414-4.414 4.414h-23.172c-2.438 0-4.414-1.976-4.414-4.414v-23.172c0-2.438 1.976-4.414 4.414-4.414z"></path>
<path fill="#fff" opacity="0.78" d="M17.092 23.032v-6.406h2.161l0.321-2.508h-2.482v-1.598c0-0.724 0.202-1.219 1.24-1.219h1.316v-2.236c-0.64-0.069-1.284-0.102-1.928-0.099-1.91 0-3.222 1.166-3.222 3.307v1.841h-2.147v2.508h2.152v6.411h2.589z"></path>
</svg>
