<!-- Generated by IcoMoon.io -->
<svg version="1.1" xmlns="http://www.w3.org/2000/svg" width="32" height="32" viewBox="0 0 32 32">
<title>Group-1415</title>
<path fill="#1e252b" d="M4.414 0h23.172c2.438 0 4.414 1.976 4.414 4.414v23.172c0 2.438-1.976 4.414-4.414 4.414h-23.172c-2.438 0-4.414-1.976-4.414-4.414v-23.172c0-2.438 1.976-4.414 4.414-4.414z"></path>
<path fill="#fff" opacity="0.78" d="M22.317 12.687c0.011 0.145 0.011 0.289 0.011 0.433 0 4.407-3.354 9.485-9.484 9.485-1.889 0-3.643-0.547-5.119-1.497 0.268 0.031 0.526 0.041 0.805 0.041 1.5 0.004 2.958-0.498 4.139-1.424-0.696-0.013-1.37-0.242-1.929-0.657s-0.974-0.993-1.189-1.655c0.206 0.031 0.413 0.051 0.63 0.051 0.299 0 0.599-0.041 0.878-0.113-0.755-0.152-1.434-0.562-1.921-1.158s-0.753-1.343-0.752-2.113v-0.041c0.444 0.247 0.96 0.402 1.506 0.423-0.458-0.304-0.833-0.717-1.092-1.201s-0.395-1.025-0.394-1.575c0-0.619 0.165-1.187 0.454-1.682 0.838 1.030 1.882 1.873 3.066 2.474s2.481 0.946 3.807 1.014c-0.051-0.248-0.083-0.506-0.083-0.764-0-0.438 0.086-0.871 0.253-1.276s0.413-0.772 0.723-1.082c0.31-0.31 0.677-0.555 1.082-0.723s0.838-0.254 1.276-0.253c0.96 0 1.826 0.402 2.436 1.053 0.746-0.144 1.462-0.417 2.115-0.805-0.249 0.77-0.77 1.424-1.466 1.837 0.662-0.076 1.309-0.25 1.919-0.516-0.456 0.665-1.021 1.247-1.671 1.724z"></path>
</svg>
