<!-- Generated by IcoMoon.io -->
<svg version="1.1" xmlns="http://www.w3.org/2000/svg" width="141" height="32" viewBox="0 0 141 32">
<title>logos_wordpress</title>
<path fill="#fff" opacity="0.2" d="M81.83 12.506h-5.554v0.585c1.737 0 2.017 0.369 2.017 2.556v3.942c0 2.186-0.279 2.587-2.017 2.587-1.334-0.185-2.233-0.893-3.475-2.248l-1.427-1.54c1.923-0.339 2.947-1.54 2.947-2.895 0-1.693-1.457-2.987-4.188-2.987h-5.461v0.585c1.737 0 2.017 0.369 2.017 2.556v3.942c0 2.186-0.279 2.587-2.017 2.587v0.585h6.174v-0.585c-1.737 0-2.016-0.4-2.016-2.587v-1.108h0.527l3.444 4.28h9.029c4.437 0 6.361-2.34 6.361-5.143s-1.924-5.112-6.361-5.112zM68.83 17.526v-4.095h1.272c1.396 0 2.017 0.955 2.017 2.063 0 1.078-0.621 2.032-2.017 2.032h-1.272zM81.923 21.807h-0.217c-1.116 0-1.271-0.277-1.271-1.694v-6.683h1.489c3.227 0 3.816 2.34 3.816 4.157 0 1.878-0.589 4.219-3.816 4.219zM47.39 18.666l2.141-6.283c0.621-1.817 0.341-2.34-1.644-2.34v-0.616h5.833v0.616c-1.955 0-2.42 0.462-3.196 2.71l-3.538 10.532h-0.403l-3.165-9.639-3.227 9.639h-0.403l-3.444-10.532c-0.745-2.248-1.241-2.71-3.041-2.71v-0.616h6.888v0.616c-1.831 0-2.328 0.431-1.675 2.34l2.079 6.282 3.134-9.239h0.59l3.072 9.239zM57.939 23.161c-3.413 0-6.205-2.494-6.205-5.543 0-3.018 2.793-5.512 6.205-5.512s6.205 2.495 6.205 5.512c0 3.049-2.792 5.543-6.205 5.543zM57.939 13.061c-2.854 0-3.847 2.556-3.847 4.557 0 2.033 0.993 4.558 3.847 4.558 2.886 0 3.879-2.525 3.879-4.558 0-2.002-0.993-4.557-3.879-4.557z"></path>
<path fill="#fff" opacity="0.2" d="M95.854 22.145v0.616h-7.105v-0.616c2.079 0 2.452-0.523 2.452-3.603v-4.927c0-3.080-0.372-3.572-2.452-3.572v-0.616h6.423c3.196 0 4.964 1.632 4.964 3.819 0 2.125-1.769 3.788-4.964 3.788h-1.769v1.508c0 3.080 0.372 3.604 2.452 3.604zM95.171 10.535h-1.769v5.359h1.769c1.737 0 2.545-1.201 2.545-2.648 0-1.478-0.807-2.71-2.545-2.71zM121.451 19.866l-0.155 0.554c-0.279 1.016-0.621 1.386-2.824 1.386h-0.435c-1.612 0-1.892-0.37-1.892-2.556v-1.417c2.42 0 2.607 0.215 2.607 1.817h0.59v-4.589h-0.59c0 1.601-0.186 1.817-2.607 1.817v-3.449h1.706c2.204 0 2.545 0.37 2.824 1.386l0.156 0.585h0.496l-0.217-2.895h-9.123v0.585c1.737 0 2.017 0.369 2.017 2.556v3.942c0 2-0.238 2.504-1.607 2.576-1.302-0.197-2.196-0.902-3.419-2.237l-1.428-1.54c1.924-0.339 2.948-1.54 2.948-2.895 0-1.693-1.459-2.987-4.189-2.987h-5.46v0.585c1.737 0 2.017 0.369 2.017 2.556v3.942c0 2.186-0.279 2.587-2.017 2.587v0.585h6.175v-0.585c-1.737 0-2.017-0.4-2.017-2.587v-1.108h0.527l3.444 4.28h12.752l0.187-2.894-0.466-0zM105.007 17.526v-4.095h1.272c1.396 0 2.017 0.955 2.017 2.063 0 1.078-0.621 2.032-2.017 2.032h-1.272zM127.749 23.161c-1.241 0-2.327-0.647-2.793-1.047-0.155 0.154-0.434 0.616-0.496 1.047h-0.59v-4.249h0.621c0.248 2.032 1.675 3.233 3.506 3.233 0.993 0 1.799-0.554 1.799-1.478 0-0.8-0.713-1.417-1.985-2.001l-1.769-0.831c-1.241-0.586-2.172-1.602-2.172-2.957 0-1.478 1.396-2.741 3.32-2.741 1.025 0 1.892 0.37 2.42 0.801 0.155-0.123 0.311-0.462 0.404-0.832h0.59v3.635h-0.652c-0.218-1.448-1.024-2.649-2.668-2.649-0.869 0-1.676 0.493-1.676 1.263 0 0.8 0.652 1.231 2.142 1.909l1.705 0.831c1.49 0.708 2.079 1.848 2.079 2.772 0 1.94-1.707 3.295-3.785 3.295v-0zM137.305 23.161c-1.241 0-2.327-0.647-2.793-1.047-0.155 0.154-0.434 0.616-0.496 1.047h-0.589v-4.249h0.62c0.248 2.032 1.676 3.233 3.506 3.233 0.993 0 1.8-0.554 1.8-1.478 0-0.8-0.713-1.417-1.986-2.001l-1.769-0.831c-1.241-0.586-2.172-1.602-2.172-2.957 0-1.478 1.396-2.741 3.32-2.741 1.024 0 1.892 0.37 2.42 0.801 0.155-0.123 0.31-0.462 0.403-0.832h0.59v3.635h-0.652c-0.217-1.448-1.024-2.649-2.668-2.649-0.868 0-1.676 0.493-1.676 1.263 0 0.8 0.652 1.231 2.141 1.909l1.706 0.831c1.489 0.708 2.079 1.848 2.079 2.772 0 1.94-1.706 3.295-3.785 3.295v-0z"></path>
<path fill="#fff" opacity="0.2" d="M2.275 15.886c0 5.395 3.159 10.056 7.739 12.266l-6.55-17.812c-0.785 1.745-1.19 3.635-1.189 5.547v-0zM25.276 15.198c0-1.684-0.61-2.851-1.133-3.759-0.696-1.122-1.348-2.073-1.348-3.196 0-1.253 0.957-2.419 2.306-2.419 0.061 0 0.118 0.008 0.178 0.011-2.443-2.221-5.698-3.577-9.273-3.577-4.797 0-9.017 2.443-11.473 6.143 0.322 0.009 0.626 0.016 0.884 0.016 1.436 0 3.66-0.173 3.66-0.173 0.74-0.043 0.827 1.036 0.088 1.123 0 0-0.744 0.087-1.572 0.13l5 14.762 3.005-8.945-2.139-5.817c-0.739-0.043-1.44-0.13-1.44-0.13-0.74-0.043-0.653-1.166 0.086-1.122 0 0 2.268 0.173 3.617 0.173 1.436 0 3.66-0.173 3.66-0.173 0.74-0.043 0.828 1.035 0.088 1.122 0 0-0.745 0.087-1.572 0.13l4.962 14.65 1.37-4.543c0.594-1.885 1.046-3.239 1.046-4.405zM16.247 17.078l-4.12 11.882c1.26 0.368 2.566 0.555 3.879 0.555 1.553 0 3.095-0.261 4.56-0.773-0.038-0.060-0.071-0.122-0.098-0.188l-4.221-11.477zM28.055 9.348c0.059 0.434 0.093 0.9 0.093 1.401 0 1.383-0.26 2.937-1.044 4.881l-4.194 12.036c4.082-2.363 6.828-6.752 6.828-11.78 0-2.37-0.61-4.598-1.682-6.539zM16.006 0c-8.826 0-16.006 7.126-16.006 15.886 0 8.761 7.181 15.887 16.006 15.887s16.007-7.126 16.007-15.887c0-8.76-7.182-15.886-16.007-15.886zM16.006 31.045c-8.421 0-15.273-6.8-15.273-15.159s6.851-15.158 15.273-15.158c8.421 0 15.272 6.8 15.272 15.158s-6.851 15.159-15.272 15.159z"></path>
</svg>
