<!-- Generated by IcoMoon.io -->
<svg version="1.1" xmlns="http://www.w3.org/2000/svg" width="99" height="32" viewBox="0 0 99 32">
<title>logos_google</title>
<path fill="#fff" opacity="0.2" d="M95.442 19.557l2.733 1.804c-0.887 1.293-3.009 3.512-6.677 3.512-4.554 0-7.946-3.489-7.946-7.926 0-4.723 3.428-7.926 7.563-7.926 4.159 0 6.197 3.275 6.856 5.043l0.36 0.902-10.715 4.39c0.814 1.59 2.086 2.397 3.883 2.397 1.798 0 3.044-0.878 3.944-2.195zM87.040 16.697l7.155-2.943c-0.396-0.985-1.57-1.685-2.973-1.685-1.786 0-4.267 1.566-4.183 4.628z"></path>
<path fill="#fff" opacity="0.2" d="M78.386 0.939h3.452v23.209h-3.452v-23.209z"></path>
<path fill="#fff" opacity="0.2" d="M72.944 9.637h3.332v14.097c0 5.85-3.487 8.259-7.611 8.259-3.883 0-6.22-2.587-7.095-4.687l3.056-1.258c0.551 1.293 1.882 2.824 4.039 2.824 2.649 0 4.279-1.626 4.279-4.663v-1.139h-0.12c-0.791 0.949-2.302 1.803-4.219 1.803-4.003 0-7.671-3.453-7.671-7.902 0-4.474 3.668-7.962 7.671-7.962 1.906 0 3.428 0.842 4.219 1.768h0.12v-1.139zM73.184 16.97c0-2.8-1.882-4.841-4.279-4.841-2.421 0-4.459 2.041-4.459 4.841 0 2.765 2.038 4.77 4.459 4.77 2.397 0.012 4.279-2.005 4.279-4.77v0z"></path>
<path fill="#fff" opacity="0.2" d="M41.985 16.911c0 4.568-3.596 7.926-8.006 7.926s-8.006-3.37-8.006-7.926c0-4.592 3.596-7.938 8.006-7.938s8.006 3.346 8.006 7.938zM38.485 16.911c0-2.848-2.086-4.806-4.507-4.806s-4.507 1.958-4.507 4.806c0 2.824 2.086 4.806 4.507 4.806s4.507-1.982 4.507-4.806z"></path>
<path fill="#fff" opacity="0.2" d="M59.472 16.946c0 4.568-3.596 7.926-8.006 7.926s-8.006-3.358-8.006-7.926c0-4.592 3.596-7.926 8.006-7.926s8.006 3.322 8.006 7.926zM55.96 16.946c0-2.848-2.085-4.806-4.507-4.806s-4.507 1.958-4.507 4.806c0 2.824 2.086 4.806 4.507 4.806 2.433 0 4.507-1.994 4.507-4.806z"></path>
<path fill="#fff" opacity="0.2" d="M12.812 21.396c-5.022 0-8.953-4.011-8.953-8.982s3.931-8.982 8.953-8.982c2.709 0 4.686 1.056 6.149 2.409l2.409-2.385c-2.038-1.934-4.758-3.406-8.558-3.406-6.88 0-12.669 5.554-12.669 12.364s5.789 12.364 12.669 12.364c3.716 0 6.52-1.21 8.714-3.465 2.253-2.231 2.948-5.363 2.948-7.903 0-0.795-0.096-1.614-0.204-2.219h-11.458v3.299h8.162c-0.24 2.065-0.899 3.477-1.87 4.438-1.175 1.175-3.032 2.468-6.292 2.468z"></path>
</svg>
