<!-- Generated by IcoMoon.io -->
<svg version="1.1" xmlns="http://www.w3.org/2000/svg" width="147" height="32" viewBox="0 0 147 32">
<title>logos_microsoft</title>
<path fill="#fff" opacity="0.2" d="M147.012 14.381v-2.619h-3.211v-4.071l-0.108 0.034-3.075 0.953v3.085h-4.76v-1.718c0-0.8 0.177-1.413 0.525-1.821 0.345-0.404 0.84-0.609 1.47-0.609 0.453 0 0.923 0.108 1.395 0.322l0.119 0.053v-2.758l-0.056-0.021c-0.441-0.161-1.041-0.241-1.784-0.241-0.936 0-1.787 0.207-2.53 0.616s-1.326 0.994-1.736 1.738c-0.408 0.743-0.614 1.601-0.614 2.55v1.889h-2.236v2.619h2.236v11.032h3.209v-11.032h4.76v7.011c0 2.888 1.345 4.351 3.996 4.351 0.436 0 0.894-0.052 1.363-0.153 0.477-0.104 0.801-0.208 0.992-0.319l0.043-0.025v-2.643l-0.131 0.087c-0.174 0.118-0.391 0.214-0.645 0.285-0.255 0.073-0.469 0.109-0.634 0.109-0.621 0-1.080-0.17-1.366-0.504-0.289-0.337-0.434-0.928-0.434-1.754v-6.445h3.211zM123.246 23.085c-1.164 0-2.083-0.392-2.73-1.162-0.651-0.775-0.981-1.879-0.981-3.282 0-1.447 0.33-2.58 0.981-3.369 0.648-0.783 1.557-1.181 2.704-1.181 1.113 0 1.999 0.38 2.633 1.129 0.638 0.753 0.962 1.877 0.962 3.342 0 1.482-0.305 2.621-0.904 3.383-0.597 0.756-1.493 1.14-2.664 1.14zM123.389 11.434c-2.222 0-3.988 0.659-5.246 1.96s-1.896 3.101-1.896 5.352c0 2.137 0.622 3.857 1.851 5.109s2.898 1.888 4.965 1.888c2.155 0 3.885-0.669 5.143-1.988s1.895-3.101 1.895-5.299c0-2.171-0.598-3.903-1.778-5.147-1.181-1.245-2.841-1.876-4.935-1.876zM111.073 11.434c-1.512 0-2.762 0.392-3.717 1.164-0.961 0.777-1.448 1.796-1.448 3.029 0 0.641 0.105 1.21 0.312 1.693 0.208 0.484 0.531 0.911 0.959 1.269 0.425 0.355 1.081 0.727 1.95 1.106 0.731 0.305 1.276 0.562 1.622 0.765 0.339 0.199 0.579 0.399 0.715 0.594 0.132 0.191 0.199 0.451 0.199 0.774 0 0.917-0.678 1.363-2.073 1.363-0.517 0-1.108-0.109-1.755-0.325-0.642-0.213-1.248-0.524-1.797-0.923l-0.133-0.097v3.13l0.049 0.023c0.454 0.212 1.027 0.391 1.701 0.532s1.285 0.213 1.817 0.213c1.64 0 2.962-0.394 3.925-1.171 0.97-0.782 1.462-1.825 1.462-3.101 0-0.92-0.265-1.709-0.786-2.346-0.518-0.631-1.417-1.211-2.672-1.723-0.999-0.406-1.639-0.743-1.903-1.002-0.254-0.25-0.384-0.604-0.384-1.051 0-0.397 0.16-0.715 0.488-0.973 0.33-0.259 0.789-0.391 1.365-0.391 0.535 0 1.082 0.085 1.626 0.253s1.022 0.392 1.42 0.667l0.131 0.091v-2.969l-0.050-0.022c-0.368-0.16-0.853-0.296-1.442-0.407-0.586-0.11-1.118-0.165-1.581-0.165zM97.541 23.085c-1.165 0-2.083-0.391-2.731-1.162-0.651-0.775-0.981-1.879-0.981-3.282 0-1.447 0.33-2.58 0.981-3.369 0.647-0.783 1.557-1.181 2.704-1.181 1.112 0 1.998 0.38 2.633 1.129 0.637 0.753 0.961 1.877 0.961 3.342 0 1.482-0.304 2.621-0.904 3.383-0.596 0.756-1.492 1.14-2.664 1.14v-0zM97.684 11.434c-2.223 0-3.989 0.659-5.246 1.96s-1.896 3.101-1.896 5.352c0 2.138 0.623 3.857 1.851 5.109s2.899 1.888 4.966 1.888c2.154 0 3.884-0.669 5.142-1.988s1.896-3.101 1.896-5.299c0-2.171-0.598-3.903-1.778-5.147s-2.841-1.876-4.934-1.876v0zM85.67 14.127v-2.364h-3.17v13.651h3.17v-6.983c0-1.188 0.266-2.163 0.79-2.9 0.518-0.728 1.208-1.097 2.050-1.097 0.286 0 0.606 0.047 0.953 0.142 0.344 0.094 0.593 0.195 0.74 0.303l0.133 0.098v-3.237l-0.051-0.022c-0.296-0.127-0.713-0.191-1.242-0.191-0.796 0-1.509 0.259-2.12 0.77-0.536 0.449-0.923 1.064-1.22 1.831h-0.034zM76.823 11.434c-1.455 0-2.752 0.316-3.856 0.938-1.106 0.624-1.961 1.515-2.542 2.648-0.579 1.131-0.873 2.451-0.873 3.923 0 1.29 0.285 2.473 0.848 3.517 0.564 1.045 1.362 1.862 2.372 2.429 1.009 0.566 2.175 0.854 3.466 0.854 1.506 0 2.793-0.305 3.824-0.907l0.042-0.024v-2.942l-0.133 0.099c-0.475 0.348-0.997 0.624-1.551 0.818-0.56 0.198-1.071 0.298-1.519 0.298-1.243 0-2.242-0.395-2.967-1.172-0.727-0.778-1.095-1.871-1.095-3.247 0-1.384 0.384-2.505 1.141-3.332 0.754-0.824 1.755-1.243 2.973-1.243 1.042 0 2.057 0.357 3.018 1.063l0.133 0.098v-3.1l-0.043-0.025c-0.361-0.205-0.854-0.374-1.467-0.502-0.609-0.128-1.205-0.193-1.772-0.193h0.001zM67.368 11.763h-3.17v13.651h3.17v-13.651l-0-0zM65.815 5.947c-0.522 0-0.976 0.18-1.351 0.536-0.375 0.358-0.566 0.808-0.566 1.339 0 0.523 0.188 0.965 0.56 1.313 0.369 0.347 0.826 0.523 1.356 0.523s0.989-0.176 1.363-0.523c0.376-0.348 0.567-0.79 0.567-1.313 0-0.513-0.186-0.959-0.552-1.325s-0.829-0.551-1.378-0.551zM57.906 10.755v14.658h3.235v-19.048h-4.477l-5.692 14.148-5.523-14.148h-4.66v19.048h3.040v-14.66h0.105l5.833 14.659h2.294l5.741-14.658h0.105z"></path>
<path fill="#fff" opacity="0.2" d="M14.914 15.106h-14.914v-15.106h14.914v15.106z"></path>
<path fill="#fff" opacity="0.2" d="M31.38 15.106h-14.913v-15.106h14.913v15.106z"></path>
<path fill="#fff" opacity="0.2" d="M14.913 31.791h-14.913v-15.106h14.913v15.106z"></path>
<path fill="#fff" opacity="0.2" d="M31.38 31.791h-14.913v-15.106h14.913v15.106z"></path>
</svg>
