<!-- Generated by IcoMoon.io -->
<svg version="1.1" xmlns="http://www.w3.org/2000/svg" width="127" height="32" viewBox="0 0 127 32">
<title>logos_slack</title>
<path fill="#fff" opacity="0.2" d="M40.481 25.079l1.58-3.652c1.708 1.268 3.977 1.927 6.22 1.927 1.657 0 2.702-0.634 2.702-1.598-0.026-2.688-9.916-0.583-9.993-7.329-0.025-3.423 3.034-6.061 7.367-6.061 2.575 0 5.149 0.634 6.985 2.079l-1.479 3.728c-1.682-1.065-3.773-1.826-5.761-1.826-1.351 0-2.243 0.634-2.243 1.445 0.026 2.637 9.993 1.192 10.095 7.633 0 3.5-2.982 5.959-7.265 5.959-3.136 0-6.016-0.736-8.208-2.308zM101.126 20.109l4.359 2.409c-1.632 2.916-4.742 4.869-8.336 4.869-5.277 0-9.559-4.26-9.559-9.509s4.283-9.509 9.559-9.509c3.569 0 6.704 1.978 8.336 4.869l-4.359 2.409c-0.79-1.369-2.269-2.307-3.977-2.307-2.523 0-4.563 2.029-4.563 4.539s2.040 4.539 4.563 4.539c1.708 0 3.187-0.938 3.977-2.308h0.001zM58.147 0.482h5.455v26.55h-5.455v-26.55zM107.626 0.482h5.456v15.595l6.169-7.329h6.679l-7.622 8.825 8.234 9.459h-6.984l-6.475-7.962v7.962h-5.456v-26.55zM79.815 20.16v-4.489c-0.79-1.319-2.422-2.333-4.257-2.333-2.524 0-4.563 2.029-4.563 4.539s2.039 4.539 4.563 4.539c1.835 0 3.466-0.964 4.257-2.257v0zM79.815 8.749h5.456v18.258h-5.456v-2.155c-0.892 1.496-3.11 2.536-5.43 2.536-4.793 0-8.566-4.26-8.566-9.535s3.773-9.484 8.566-9.484c2.32 0 4.537 1.040 5.43 2.536v-2.156z"></path>
<path fill="#fff" opacity="0.2" d="M6.755 20.134c0 1.851-1.504 3.347-3.365 3.347-0.442 0-0.88-0.086-1.288-0.254s-0.78-0.415-1.092-0.726c-0.313-0.311-0.56-0.68-0.729-1.086s-0.256-0.842-0.255-1.282c0-1.851 1.504-3.347 3.365-3.347h3.365v3.347zM8.438 20.134c0-1.851 1.504-3.347 3.365-3.347s3.365 1.496 3.365 3.347v8.368c0 1.851-1.504 3.347-3.365 3.347-0.442 0-0.88-0.086-1.288-0.254s-0.78-0.415-1.092-0.726c-0.313-0.311-0.56-0.68-0.729-1.086s-0.256-0.842-0.255-1.281v-8.368h-0z"></path>
<path fill="#fff" opacity="0.2" d="M11.803 6.695c-0.442 0-0.88-0.086-1.288-0.254s-0.78-0.415-1.092-0.726c-0.313-0.311-0.56-0.68-0.729-1.086s-0.256-0.842-0.255-1.281c-0-1.851 1.504-3.347 3.365-3.347s3.365 1.496 3.365 3.347v3.347h-3.365zM11.803 8.394c1.861 0 3.365 1.496 3.365 3.347s-1.504 3.347-3.365 3.347h-8.438c-0.442 0-0.88-0.086-1.288-0.254s-0.78-0.415-1.092-0.726c-0.313-0.311-0.56-0.68-0.729-1.086s-0.256-0.842-0.255-1.281c0-1.851 1.504-3.347 3.365-3.347l8.438-0z"></path>
<path fill="#fff" opacity="0.2" d="M25.288 11.741c0-1.851 1.504-3.347 3.365-3.347s3.365 1.496 3.365 3.347-1.504 3.347-3.365 3.347h-3.365v-3.347zM23.605 11.741c0 1.851-1.504 3.347-3.365 3.347-0.442 0-0.88-0.086-1.288-0.254s-0.78-0.415-1.092-0.726c-0.313-0.311-0.56-0.68-0.729-1.086s-0.256-0.842-0.255-1.281v-8.394c0-1.851 1.504-3.347 3.365-3.347s3.365 1.496 3.365 3.347v8.394l-0-0z"></path>
<path fill="#fff" opacity="0.2" d="M20.24 25.155c1.861 0 3.365 1.496 3.365 3.347s-1.504 3.347-3.365 3.347c-0.442 0-0.88-0.086-1.288-0.254s-0.78-0.415-1.092-0.726c-0.313-0.311-0.56-0.68-0.729-1.087s-0.256-0.842-0.255-1.281v-3.347h3.365zM20.24 23.482c-0.442 0-0.88-0.086-1.288-0.254s-0.78-0.415-1.092-0.726c-0.313-0.311-0.56-0.68-0.729-1.086s-0.256-0.842-0.255-1.281c0-1.851 1.504-3.347 3.365-3.347h8.438c1.861 0 3.365 1.496 3.365 3.347s-1.504 3.347-3.365 3.347l-8.438-0z"></path>
</svg>
